# Original CC0 analytical concave collision reference, metres.
v -4.000000000 2.000000000 -2
v -4.000000000 2.000000000 2
v -3.923141122 1.609819356 -2
v -3.923141122 1.609819356 2
v -3.695518130 1.234633135 -2
v -3.695518130 1.234633135 2
v -3.325878449 0.888859534 -2
v -3.325878449 0.888859534 2
v -2.828427125 0.585786438 -2
v -2.828427125 0.585786438 2
v -2.222280932 0.337060775 -2
v -2.222280932 0.337060775 2
v -1.530733729 0.152240935 -2
v -1.530733729 0.152240935 2
v -0.780361288 0.038429439 -2
v -0.780361288 0.038429439 2
v 0.000000000 0.000000000 -2
v 0.000000000 0.000000000 2
v 0.780361288 0.038429439 -2
v 0.780361288 0.038429439 2
v 1.530733729 0.152240935 -2
v 1.530733729 0.152240935 2
v 2.222280932 0.337060775 -2
v 2.222280932 0.337060775 2
v 2.828427125 0.585786438 -2
v 2.828427125 0.585786438 2
v 3.325878449 0.888859534 -2
v 3.325878449 0.888859534 2
v 3.695518130 1.234633135 -2
v 3.695518130 1.234633135 2
v 3.923141122 1.609819356 -2
v 3.923141122 1.609819356 2
v 4.000000000 2.000000000 -2
v 4.000000000 2.000000000 2
f 1 2 4
f 1 4 3
f 3 4 6
f 3 6 5
f 5 6 8
f 5 8 7
f 7 8 10
f 7 10 9
f 9 10 12
f 9 12 11
f 11 12 14
f 11 14 13
f 13 14 16
f 13 16 15
f 15 16 18
f 15 18 17
f 17 18 20
f 17 20 19
f 19 20 22
f 19 22 21
f 21 22 24
f 21 24 23
f 23 24 26
f 23 26 25
f 25 26 28
f 25 28 27
f 27 28 30
f 27 30 29
f 29 30 32
f 29 32 31
f 31 32 34
f 31 34 33
